<svg width="58" height="57" viewBox="0 0 58 57" fill="none" xmlns="http://www.w3.org/2000/svg">
<path d="M29.1562 51.6563C41.9243 51.6563 52.3125 41.268 52.3125 28.5C52.3125 15.732 41.9242 5.34375 29.1562 5.34375C16.3882 5.34375 6 15.732 6 28.5C6 41.268 16.3882 51.6563 29.1562 51.6563ZM29.1562 48.0938C18.3138 48.0938 9.5625 39.3425 9.5625 28.5C9.5625 17.6575 18.3138 8.90625 29.1562 8.90625C39.9987 8.90625 48.75 17.6575 48.75 28.5C48.75 39.3425 39.9987 48.0938 29.1562 48.0938ZM25.9856 40.47L36.6731 29.7825L37.8951 28.5L36.6713 27.2175L25.9838 16.53L23.4188 19.095L32.831 28.5L23.426 37.905L25.9856 40.47Z" fill="black"/>
</svg>
