<svg width="47" height="47" viewBox="0 0 47 47" fill="none" xmlns="http://www.w3.org/2000/svg">
<path d="M23.1562 0C10.3882 0 0 10.3882 0 23.1562C0 35.9243 10.3882 46.3125 23.1562 46.3125C35.9243 46.3125 46.3125 35.9243 46.3125 23.1562C46.3125 10.3882 35.9243 0 23.1562 0ZM23.1562 3.5625C33.9987 3.5625 42.75 12.3138 42.75 23.1562C42.75 33.9987 33.9987 42.75 23.1562 42.75C12.3138 42.75 3.5625 33.9987 3.5625 23.1562C3.5625 12.3138 12.3138 3.5625 23.1562 3.5625ZM26.3269 11.1862L15.6394 21.8737L14.4174 23.1562L15.6412 24.4387L26.3287 35.1262L28.8937 32.5613L19.4815 23.1562L28.8865 13.7513L26.3269 11.1862Z" fill="black"/>
</svg>
